<svg xmlns="http://www.w3.org/2000/svg" width="793" height="151" fill="none"><path fill="#E51937" d="M129.4 149l-.2-92.8-46 76.8H71.6l-46-75.6V149H.8V9h21.4l55.6 92.8L132.4 9h21.4l.2 140h-24.6zm108.016 1.4c-10.8 0-20.534-2.333-29.2-7-8.667-4.667-15.467-11.133-20.4-19.4-4.8-8.4-7.2-17.867-7.2-28.4 0-10.533 2.4-19.933 7.2-28.2 4.933-8.267 11.733-14.733 20.4-19.4 8.666-4.667 18.4-7 29.2-7 10.933 0 20.733 2.333 29.4 7 8.666 4.667 15.4 11.133 20.2 19.4 4.933 8.267 7.4 17.667 7.4 28.2 0 10.533-2.467 20-7.4 28.4-4.8 8.267-11.534 14.733-20.2 19.4-8.667 4.667-18.467 7-29.4 7zm0-21.4c9.2 0 16.8-3.067 22.8-9.2 6-6.133 9-14.2 9-24.2s-3-18.067-9-24.2c-6-6.133-13.6-9.2-22.8-9.2-9.2 0-16.8 3.067-22.8 9.2-5.867 6.133-8.8 14.2-8.8 24.2s2.933 18.067 8.8 24.2c6 6.133 13.6 9.2 22.8 9.2zM422.922.6V149h-24v-13.8c-4.133 5.067-9.267 8.867-15.4 11.4-6 2.533-12.667 3.8-20 3.8-10.267 0-19.533-2.267-27.8-6.8-8.133-4.533-14.533-10.933-19.2-19.2-4.667-8.4-7-18-7-28.8s2.333-20.333 7-28.6c4.667-8.267 11.067-14.667 19.2-19.2 8.267-4.533 17.533-6.8 27.8-6.8 7.067 0 13.533 1.2 19.4 3.6 5.867 2.4 10.867 6 15 10.8V.6h25zm-56.4 128.4c6 0 11.4-1.333 16.2-4 4.8-2.8 8.6-6.733 11.4-11.8 2.8-5.067 4.2-10.933 4.2-17.6 0-6.667-1.4-12.533-4.2-17.6-2.8-5.067-6.6-8.933-11.4-11.6-4.8-2.8-10.2-4.2-16.2-4.2s-11.4 1.4-16.2 4.2c-4.8 2.667-8.6 6.533-11.4 11.6-2.8 5.067-4.2 10.933-4.2 17.6 0 6.667 1.4 12.533 4.2 17.6 2.8 5.067 6.6 9 11.4 11.8 4.8 2.667 10.2 4 16.2 4zm189.505-32.8c0 1.733-.134 4.2-.4 7.4h-83.8c1.466 7.867 5.266 14.133 11.4 18.8 6.266 4.533 14 6.8 23.2 6.8 11.733 0 21.4-3.867 29-11.6l13.4 15.4c-4.8 5.733-10.867 10.067-18.2 13-7.334 2.933-15.6 4.4-24.8 4.4-11.734 0-22.067-2.333-31-7-8.934-4.667-15.867-11.133-20.8-19.4-4.8-8.4-7.2-17.867-7.2-28.4 0-10.4 2.333-19.733 7-28 4.8-8.4 11.4-14.933 19.8-19.6 8.4-4.667 17.866-7 28.4-7 10.4 0 19.666 2.333 27.8 7 8.266 4.533 14.666 11 19.2 19.4 4.666 8.267 7 17.867 7 28.8zm-54-35.2c-8 0-14.8 2.4-20.4 7.2-5.467 4.667-8.8 10.933-10 18.8h60.6c-1.067-7.733-4.334-14-9.8-18.8-5.467-4.8-12.267-7.2-20.4-7.2zM580.041.6h25V149h-25V.6zM738.927 151c-10.8 0-21.267-1.533-31.4-4.6-10-3.067-17.934-7.133-23.8-12.2l9-20.2c5.733 4.533 12.733 8.267 21 11.2 8.4 2.8 16.8 4.2 25.2 4.2 10.4 0 18.133-1.667 23.2-5 5.2-3.333 7.8-7.733 7.8-13.2 0-4-1.467-7.267-4.4-9.8-2.8-2.667-6.4-4.733-10.8-6.2-4.4-1.467-10.4-3.133-18-5-10.667-2.533-19.334-5.067-26-7.6-6.534-2.533-12.2-6.467-17-11.8-4.667-5.467-7-12.8-7-22 0-7.733 2.066-14.733 6.2-21 4.266-6.4 10.6-11.467 19-15.2 8.533-3.733 18.933-5.6 31.2-5.6 8.533 0 16.933 1.067 25.2 3.2 8.266 2.133 15.4 5.2 21.4 9.2l-8.2 20.2c-6.134-3.6-12.534-6.333-19.2-8.2-6.667-1.867-13.134-2.8-19.4-2.8-10.267 0-17.934 1.733-23 5.2-4.934 3.467-7.4 8.067-7.4 13.8 0 4 1.4 7.267 4.2 9.8 2.933 2.533 6.6 4.533 11 6 4.4 1.467 10.4 3.133 18 5 10.4 2.4 18.933 4.933 25.6 7.6 6.666 2.533 12.333 6.467 17 11.8 4.8 5.333 7.2 12.533 7.2 21.6 0 7.733-2.134 14.733-6.4 21-4.134 6.267-10.467 11.267-19 15-8.534 3.733-18.934 5.6-31.2 5.6z" opacity=".1"/></svg>