<svg xmlns="http://www.w3.org/2000/svg" width="140" height="25" fill="none"><path fill="#fff" d="M12.5 0l2.806 8.637h9.082l-7.347 5.338 2.806 8.638-7.347-5.338-7.347 5.338 2.806-8.638L.612 8.637h9.082L12.5 0zm29 0l2.806 8.637h9.082l-7.347 5.338 2.806 8.638-7.347-5.338-7.347 5.338 2.806-8.638-7.347-5.338h9.082L41.5 0zm29 0l2.806 8.637h9.082l-7.347 5.338 2.806 8.638-7.347-5.338-7.347 5.338 2.806-8.638-7.347-5.338h9.082L70.5 0zm29 0l2.806 8.637h9.082l-7.347 5.338 2.806 8.638-7.347-5.338-7.347 5.338 2.806-8.638-7.347-5.338h9.082L99.5 0zm28 0l2.806 8.637h9.082l-7.347 5.338 2.806 8.638-7.347-5.338-7.347 5.338 2.806-8.638-7.347-5.338h9.082L127.5 0z"/></svg>